<svg width="28" height="28" fill="none" xmlns="http://www.w3.org/2000/svg"><path fill-rule="evenodd" clip-rule="evenodd" d="M21.083 17.906h-3.958v9.427h6.302a3.911 3.911 0 0 0 3.906-3.906V4.573A3.911 3.911 0 0 0 23.427.667H4.573A3.91 3.91 0 0 0 .667 4.573v18.854a3.911 3.911 0 0 0 3.906 3.906h7.864v-9.427H9.313V13.22h3.124v-3.18a4.693 4.693 0 0 1 4.688-4.687h4.74v4.687h-4.74v3.178h4.74l-.782 4.687Zm-2.958-5.687h4.92l-1.115 6.687h-3.805v7.427h5.302a2.911 2.911 0 0 0 2.906-2.906V4.573a2.911 2.911 0 0 0-2.906-2.907H4.573a2.91 2.91 0 0 0-2.906 2.907v18.854a2.91 2.91 0 0 0 2.906 2.906h6.864v-7.427H8.313V12.22h3.124v-2.18a5.693 5.693 0 0 1 5.688-5.687h5.74v6.687h-4.74v1.178Z" fill="#fff"/><path fill-rule="evenodd" clip-rule="evenodd" d="M21.083 17.906h-3.958v9.427h6.302a3.911 3.911 0 0 0 3.906-3.906V4.573A3.911 3.911 0 0 0 23.427.667H4.573A3.91 3.91 0 0 0 .667 4.573v18.854a3.911 3.911 0 0 0 3.906 3.906h7.864v-9.427H9.313V13.22h3.124v-3.18a4.693 4.693 0 0 1 4.688-4.687h4.74v4.687h-4.74v3.178h4.74l-.782 4.687Zm-2.958-5.687h4.92l-1.115 6.687h-3.805v7.427h5.302a2.911 2.911 0 0 0 2.906-2.906V4.573a2.911 2.911 0 0 0-2.906-2.907H4.573a2.91 2.91 0 0 0-2.906 2.907v18.854a2.91 2.91 0 0 0 2.906 2.906h6.864v-7.427H8.313V12.22h3.124v-2.18a5.693 5.693 0 0 1 5.688-5.687h5.74v6.687h-4.74v1.178Z" fill="url(#a)"/><defs><linearGradient id="a" x1="14" y1=".667" x2="14" y2="27.333" gradientUnits="userSpaceOnUse"><stop stop-color="#fff"/><stop offset="1" stop-color="#fff" stop-opacity="0"/></linearGradient></defs></svg>