<svg width="28" height="28" fill="none" xmlns="http://www.w3.org/2000/svg"><path fill-rule="evenodd" clip-rule="evenodd" d="M22.333 1.667H5.667a4 4 0 0 0-4 4v16.667a4 4 0 0 0 4 4h16.666a4 4 0 0 0 4-4V5.667a4 4 0 0 0-4-4Zm-16.666-1a5 5 0 0 0-5 5v16.667a5 5 0 0 0 5 5h16.666a5 5 0 0 0 5-5V5.667a5 5 0 0 0-5-5H5.667Z" fill="#fff"/><path fill-rule="evenodd" clip-rule="evenodd" d="M22.333 1.667H5.667a4 4 0 0 0-4 4v16.667a4 4 0 0 0 4 4h16.666a4 4 0 0 0 4-4V5.667a4 4 0 0 0-4-4Zm-16.666-1a5 5 0 0 0-5 5v16.667a5 5 0 0 0 5 5h16.666a5 5 0 0 0 5-5V5.667a5 5 0 0 0-5-5H5.667Z" fill="url(#a)"/><path fill-rule="evenodd" clip-rule="evenodd" d="M14.444 20.111a5.667 5.667 0 1 1 0-11.333 5.667 5.667 0 0 1 0 11.333Zm0 1a6.667 6.667 0 1 1 0-13.333 6.667 6.667 0 0 1 0 13.333Z" fill="#fff"/><path fill-rule="evenodd" clip-rule="evenodd" d="M14.444 20.111a5.667 5.667 0 1 1 0-11.333 5.667 5.667 0 0 1 0 11.333Zm0 1a6.667 6.667 0 1 1 0-13.333 6.667 6.667 0 0 1 0 13.333Z" fill="url(#b)"/><path fill-rule="evenodd" clip-rule="evenodd" d="M22 6.112a.778.778 0 1 1 0 1.555.778.778 0 0 1 0-1.555Zm0-1a1.778 1.778 0 1 1 0 3.555 1.778 1.778 0 0 1 0-3.555Z" fill="#fff"/><path fill-rule="evenodd" clip-rule="evenodd" d="M22 6.112a.778.778 0 1 1 0 1.555.778.778 0 0 1 0-1.555Zm0-1a1.778 1.778 0 1 1 0 3.555 1.778 1.778 0 0 1 0-3.555Z" fill="url(#c)"/><defs><linearGradient id="a" x1="14" y1=".667" x2="14" y2="27.334" gradientUnits="userSpaceOnUse"><stop stop-color="#fff"/><stop offset="1" stop-color="#fff" stop-opacity="0"/></linearGradient><linearGradient id="b" x1="14.444" y1="7.778" x2="14.444" y2="21.111" gradientUnits="userSpaceOnUse"><stop stop-color="#fff"/><stop offset="1" stop-color="#fff" stop-opacity="0"/></linearGradient><linearGradient id="c" x1="22" y1="8.667" x2="22" y2="5.112" gradientUnits="userSpaceOnUse"><stop stop-color="#fff"/><stop offset="1" stop-color="#fff" stop-opacity="0"/></linearGradient></defs></svg>