<svg width="28" height="28" fill="none" xmlns="http://www.w3.org/2000/svg"><path d="M8.5 11.882c0-2.447 1.926-5.382 5.747-5.382 3.07 0 5.091 2.38 5.091 4.936 0 3.38-1.754 5.905-4.339 5.905-.868 0-1.685-.503-1.964-1.074 0 0-.467 1.985-.566 2.368-.33 1.288-1.274 2.576-1.433 2.795l-.018.024a.105.105 0 0 1-.191-.049 2.446 2.446 0 0 0-.006-.04c-.042-.31-.262-1.914.03-3.234l1.034-4.695s-.256-.55-.256-1.363c0-1.277.69-2.23 1.55-2.23.732 0 1.085.588 1.085 1.293 0 .503-.191 1.165-.392 1.862-.114.395-.23.8-.318 1.196-.202.914.428 1.66 1.269 1.66 1.523 0 2.55-2.097 2.55-4.582 0-1.888-1.187-3.302-3.346-3.302-2.44 0-3.96 1.95-3.96 4.127 0 .75.207 1.28.53 1.69.15.188.17.264.117.48-.021.083-.055.229-.088.37l-.076.321c-.054.219-.22.296-.404.216-1.122-.492-1.646-1.81-1.646-3.292Z" fill="#fff"/><path fill-rule="evenodd" clip-rule="evenodd" d="M.5 5.5a5 5 0 0 1 5-5h17a5 5 0 0 1 5 5v17a5 5 0 0 1-5 5h-17a5 5 0 0 1-5-5v-17Zm5-4a4 4 0 0 0-4 4v17a4 4 0 0 0 4 4h17a4 4 0 0 0 4-4v-17a4 4 0 0 0-4-4h-17Z" fill="#fff"/></svg>