<svg width="32" height="24" fill="none" xmlns="http://www.w3.org/2000/svg"><path fill-rule="evenodd" clip-rule="evenodd" d="m30.376 4.582-.001-.004a3.01 3.01 0 0 0-2.115-2.115h-.004c-.52-.143-1.524-.267-2.823-.364a97.971 97.971 0 0 0-4.142-.201 194.139 194.139 0 0 0-5.18-.085H16v-1s10.016 0 12.52.685a4.01 4.01 0 0 1 2.82 2.82c.686 2.504.66 7.723.66 7.723s0 5.193-.66 7.697a4.01 4.01 0 0 1-2.82 2.82c-2.504.66-12.52.66-12.52.66v-1h.11a120.842 120.842 0 0 0 1.484-.01c.974-.01 2.297-.031 3.698-.072 1.402-.041 2.873-.103 4.144-.194 1.297-.093 2.303-.212 2.827-.35a3.01 3.01 0 0 0 2.112-2.111c.3-1.14.461-2.968.544-4.581a65.632 65.632 0 0 0 .08-2.804v-.072l.001-.042v-.165a62.315 62.315 0 0 0-.071-2.649c-.08-1.622-.242-3.452-.553-4.586ZM0 12.015s0 5.22.659 7.697a4.01 4.01 0 0 0 2.82 2.82c2.53.686 12.52.686 12.52.686l.001-1h-.11a189.048 189.048 0 0 1-5.171-.085 97.96 97.96 0 0 1-4.141-.202c-1.3-.097-2.309-.22-2.837-.364h-.002a3.01 3.01 0 0 1-2.114-2.114c-.3-1.125-.461-2.952-.544-4.57a65.684 65.684 0 0 1-.08-2.813L1 12.028v-.068a36.634 36.634 0 0 1 .01-.776c.01-.518.03-1.235.071-2.027.083-1.613.245-3.44.544-4.581A3.092 3.092 0 0 1 3.74 2.437c.525-.137 1.53-.256 2.825-.349 1.27-.091 2.742-.153 4.144-.194a201.742 201.742 0 0 1 5.18-.081H16v-1s-10.017 0-12.52.659C2.134 1.84 1.027 2.948.658 4.318 0 6.822 0 12.015 0 12.015Z" fill="#fff"/><path fill-rule="evenodd" clip-rule="evenodd" d="m30.376 4.582-.001-.004a3.01 3.01 0 0 0-2.115-2.115h-.004c-.52-.143-1.524-.267-2.823-.364a97.971 97.971 0 0 0-4.142-.201 194.139 194.139 0 0 0-5.18-.085H16v-1s10.016 0 12.52.685a4.01 4.01 0 0 1 2.82 2.82c.686 2.504.66 7.723.66 7.723s0 5.193-.66 7.697a4.01 4.01 0 0 1-2.82 2.82c-2.504.66-12.52.66-12.52.66v-1h.11a120.842 120.842 0 0 0 1.484-.01c.974-.01 2.297-.031 3.698-.072 1.402-.041 2.873-.103 4.144-.194 1.297-.093 2.303-.212 2.827-.35a3.01 3.01 0 0 0 2.112-2.111c.3-1.14.461-2.968.544-4.581a65.632 65.632 0 0 0 .08-2.804v-.072l.001-.042v-.165a62.315 62.315 0 0 0-.071-2.649c-.08-1.622-.242-3.452-.553-4.586ZM0 12.015s0 5.22.659 7.697a4.01 4.01 0 0 0 2.82 2.82c2.53.686 12.52.686 12.52.686l.001-1h-.11a189.048 189.048 0 0 1-5.171-.085 97.96 97.96 0 0 1-4.141-.202c-1.3-.097-2.309-.22-2.837-.364h-.002a3.01 3.01 0 0 1-2.114-2.114c-.3-1.125-.461-2.952-.544-4.57a65.684 65.684 0 0 1-.08-2.813L1 12.028v-.068a36.634 36.634 0 0 1 .01-.776c.01-.518.03-1.235.071-2.027.083-1.613.245-3.44.544-4.581A3.092 3.092 0 0 1 3.74 2.437c.525-.137 1.53-.256 2.825-.349 1.27-.091 2.742-.153 4.144-.194a201.742 201.742 0 0 1 5.18-.081H16v-1s-10.017 0-12.52.659C2.134 1.84 1.027 2.948.658 4.318 0 6.822 0 12.015 0 12.015Z" fill="url(#a)"/><path fill-rule="evenodd" clip-rule="evenodd" d="m21.139 12.015-8.33-4.797v9.595l8.33-4.798Zm-2.004 0L13.81 8.948v6.134l5.325-3.067Z" fill="#fff"/><path fill-rule="evenodd" clip-rule="evenodd" d="m21.139 12.015-8.33-4.797v9.595l8.33-4.798Zm-2.004 0L13.81 8.948v6.134l5.325-3.067Z" fill="url(#b)"/><defs><linearGradient id="a" x1="16" y1=".813" x2="16" y2="23.218" gradientUnits="userSpaceOnUse"><stop stop-color="#fff"/><stop offset="1" stop-color="#fff" stop-opacity="0"/></linearGradient><linearGradient id="b" x1="16.974" y1="7.218" x2="16.974" y2="16.813" gradientUnits="userSpaceOnUse"><stop stop-color="#fff"/><stop offset="1" stop-color="#fff" stop-opacity="0"/></linearGradient></defs></svg>